<svg version="1.2" xmlns="http://www.w3.org/2000/svg" viewBox="0 0 4096 460" width="4096" height="460"><style>.a{fill:#28a745}.b{fill:#212529}</style><path class="a" d="m353.9 438v-66.5h-236.5v-106.9h187.5v-66.3h-187.5v-106.9h225.6v-66.5h-300.8v413.1zm206.6 0c30.2 0 58.7-4.6 85.5-13.5 26.5-9.3 49.9-22.8 70-40.4 20.2-17.5 35.7-39.2 47.3-64.8 11.5-25.6 17-54.7 17-87.9 0-31.6-5.2-59.9-15.9-84.9-10.6-25.1-25.3-46.1-44.1-63.7-18.7-17.6-40.6-31.1-65.6-40.9-24.8-9.8-51.9-15.3-80.7-16.7v-0.3h-158.5v413.1zm0-66.5h-69.7v-280.1h69.7c27.4 0 51.9 5.2 73.5 15.6 21.6 10.4 38.6 26.2 51 46.9 12.4 20.8 18.7 46.7 18.7 77.5 0 31.2-6 57.1-18.4 77.8-12.4 20.8-29.4 36.3-51 46.7-21.6 10.4-46.1 15.6-73.8 15.6zm444.6 72c50.7 0 90.7-13.3 120.4-39.8 32.2-28.8 48.4-72 48.4-129.9v-248.9h-74.9v248.9c0 42.6-15 70.9-45 84.7-14.1 6.6-30.5 9.8-48.9 9.8-18.8 0-34.9-3.2-49-9.5-14.1-6.4-25.1-16.4-33.1-30.3-8.1-13.8-11.9-32-11.9-54.7v-248.9h-75.1v248.9c0 57.9 16.1 101.1 48.4 129.9 29.6 26.5 69.7 39.8 120.7 39.8z"/><path class="b" d="m1450.4 443.5c31.4 0 60.7-6.7 88.1-19.3 27.1-13 49.6-30 67.1-51l-52.1-51.9c-13 13-28.5 23.1-46.4 30-17.8 6.9-36.6 10.4-56.7 10.4-24.5 0-47.3-5.2-68.3-15.6-21-10.4-37.8-25.4-50.7-44.7-13-19.5-19.3-42.6-19.3-70 0-27 6.3-50.4 19.3-70 12.9-19.3 29.7-34.2 50.7-44.6 21-10.4 43.8-15.6 68.3-15.6 20.1 0 38.9 3.5 56.7 10.4 17.9 6.9 33.4 17 46.4 30.2l53.9-53.5c-20.2-20.8-43.5-37.2-70-49.9-26.5-12.7-55.6-18.7-87-18.7-40.4 0-77.2 9.5-110.7 28.5-33.1 19-59.6 44.7-79.5 76.7-19.9 31.9-29.6 67.7-29.6 106.5 0 39.2 9.7 74.7 29.6 106.6 19.9 32.3 46.4 57.7 79.5 76.7 33.5 19.3 70.3 28.8 110.7 28.8zm404.7 0c40.4 0 77.2-9.5 110.6-28.8 33.2-19 59.7-44.4 79.6-76.7 19.8-31.9 29.6-67.4 29.6-106.6 0-38.8-9.8-74.6-29.6-106.5-19.9-32-46.4-57.7-79.6-76.7-33.4-19-70.2-28.5-110.6-28.5-40.6 0-77.5 9.5-110.9 28.5-33.1 19-59.6 44.7-79.5 76.7-19.9 31.9-29.7 67.7-29.7 106.5 0 39.2 9.8 74.7 29.7 106.6 19.9 32.3 46.4 57.7 79.5 76.7 33.4 19.3 70.3 28.8 110.9 28.8zm0-81.8c-24.8 0-47.5-5.2-68.5-15.6-21.1-10.4-37.8-25.4-50.7-44.7-13-19.5-19.3-42.6-19.3-70 0-27 6.3-50.4 19.3-70 12.9-19.3 29.6-34.2 50.7-44.6 21-10.4 43.7-15.6 68.5-15.6 24.5 0 47.3 5.2 68.3 15.6 20.7 10.4 37.7 25.3 50.7 44.6 13 19.6 19.3 43 19.3 70 0 27.4-6.3 50.5-19.3 70-13 19.3-30 34.3-50.7 44.7-21 10.4-43.8 15.6-68.3 15.6zm620.3 76.3v-413.1h-74.9v277.1l-196.5-277.1h-66.6v413.1h75.2v-277.7l198.5 277.7zm420.3 0v-413.1h-74.9v277.1l-196.4-277.1h-66.6v413.1h75.2v-277.7l198.5 277.7zm394.1 0v-66.5h-236.5v-106.9h187.5v-66.3h-187.5v-106.9h225.6v-66.5h-300.8v413.1zm252.9 5.5c31.4 0 60.8-6.7 88.2-19.3 27.1-13 49.5-30 67.1-51l-52.1-51.9c-13 13-28.6 23.1-46.4 30-17.9 6.9-36.6 10.4-56.8 10.4-24.5 0-47.2-5.2-68.2-15.6-21.1-10.4-37.8-25.4-50.7-44.7-13-19.5-19.3-42.6-19.3-70 0-27 6.3-50.4 19.3-70 12.9-19.3 29.6-34.2 50.7-44.6 21-10.4 43.7-15.6 68.2-15.6 20.2 0 38.9 3.5 56.8 10.4 17.8 6.9 33.4 17 46.4 30.2l53.8-53.5c-20.1-20.8-43.5-37.2-70-49.9-26.5-12.7-55.6-18.7-87-18.7-40.3 0-77.2 9.5-110.6 28.5-33.1 19-59.6 44.7-79.5 76.7-19.9 31.9-29.7 67.7-29.7 106.5 0 39.2 9.8 74.7 29.7 106.6 19.9 32.3 46.4 57.7 79.5 76.7 33.4 19.3 70.3 28.8 110.6 28.8zm394.4-5.5v-346.6h123.3v-66.5h-321.8v66.5h123.3v346.6z"/></svg>